%TF.GenerationSoftware,KiCad,Pcbnew,10.0.6*%
%TF.CreationDate,2026-10-11T04:40:13+05:00*%
%TF.ProjectId,ki,6b692e6b-6963-4616-945f-706362585858,rev?*%
%TF.SameCoordinates,Original*%
%TF.FileFunction,Copper,L2,Bot*%
%TF.FilePolarity,Positive*%
%FSLAX46Y46*%
G04 Gerber Fmt 4.6, Leading zero omitted, Abs format (unit mm)*
G04 Created by KiCad (PCBNEW 10.0.6) date 2026-10-11 04:40:13*
%MOMM*%
%LPD*%
G01*
G04 APERTURE LIST*
%TA.AperFunction,ComponentPad*%
%ADD10C,1.400000*%
%TD*%
%TA.AperFunction,ComponentPad*%
%ADD11C,2.200000*%
%TD*%
%TA.AperFunction,ComponentPad*%
%ADD12R,1.700000X1.700000*%
%TD*%
%TA.AperFunction,ComponentPad*%
%ADD13O,1.700000X1.700000*%
%TD*%
%TA.AperFunction,ComponentPad*%
%ADD14C,1.700000*%
%TD*%
%TA.AperFunction,ComponentPad*%
%ADD15C,1.524000*%
%TD*%
%TA.AperFunction,ComponentPad*%
%ADD16R,1.500000X1.500000*%
%TD*%
%TA.AperFunction,ComponentPad*%
%ADD17C,1.500000*%
%TD*%
%TA.AperFunction,Conductor*%
%ADD18C,0.200000*%
%TD*%
G04 APERTURE END LIST*
D10*
%TO.P,R1,1*%
%TO.N,+3.3V*%
X128810000Y-82000000D03*
%TO.P,R1,2*%
%TO.N,/DHT11 DATA*%
X121190000Y-82000000D03*
%TD*%
D11*
%TO.P,SW1,1,1_1*%
%TO.N,/GPIO2*%
X98000000Y-96000000D03*
%TO.P,SW1,2,2_2*%
%TO.N,GND*%
X91650000Y-98540000D03*
%TD*%
D12*
%TO.P,J2,1,Pin_1_1*%
%TO.N,GND*%
X128986000Y-113749000D03*
D13*
%TO.P,J2,2,Pin_2_2*%
%TO.N,+3.3V*%
X126446000Y-113749000D03*
%TO.P,J2,3,Pin_3_3*%
%TO.N,/SCL*%
X123906000Y-113749000D03*
%TO.P,J2,4,Pin_4_4*%
%TO.N,/SDA*%
X121366000Y-113749000D03*
%TD*%
D12*
%TO.P,J1,1,Pin_1_1*%
%TO.N,+3.3V*%
X144000000Y-115240000D03*
D14*
%TO.P,J1,2,Pin_2_2*%
%TO.N,GND*%
X144000000Y-112700000D03*
%TO.P,J1,3,Pin_3_3*%
%TO.N,/SCL*%
X144000000Y-110160000D03*
%TO.P,J1,4,Pin_4_4*%
%TO.N,/SDA*%
X144000000Y-107620000D03*
%TO.P,J1,5,Pin_5_5*%
%TO.N,unconnected-(J1-Pin_5-Pad5)*%
X144000000Y-105080000D03*
%TO.P,J1,6,Pin_6_6*%
%TO.N,unconnected-(J1-Pin_6-Pad6)*%
X144000000Y-102540000D03*
%TO.P,J1,7,Pin_7_7*%
%TO.N,unconnected-(J1-Pin_7-Pad7)*%
X144000000Y-100000000D03*
%TO.P,J1,8,Pin_8_8*%
%TO.N,unconnected-(J1-Pin_8-Pad8)*%
X144000000Y-97460000D03*
%TD*%
D15*
%TO.P,U1,1,D0_1*%
%TO.N,unconnected-(U1-D0-Pad1)_1*%
X152380000Y-86380000D03*
%TO.P,U1,2,D1_2*%
%TO.N,/DHT11 DATA*%
X152380000Y-88920000D03*
%TO.P,U1,3,D2_3*%
%TO.N,/GPIO2*%
X152380000Y-91460000D03*
%TO.P,U1,4,D3_4*%
%TO.N,/GPIO3*%
X152380000Y-94000000D03*
%TO.P,U1,5,D4_5*%
%TO.N,/SCL*%
X152380000Y-96540000D03*
%TO.P,U1,6,D5_6*%
%TO.N,/SDA*%
X152380000Y-99080000D03*
%TO.P,U1,7,D6_7*%
%TO.N,unconnected-(U1-D6-Pad7)*%
X152380000Y-101620000D03*
%TO.P,U1,8,D7_8*%
%TO.N,unconnected-(U1-D7-Pad8)_1*%
X167620000Y-101620000D03*
%TO.P,U1,9,D8_9*%
%TO.N,unconnected-(U1-D8-Pad9)_1*%
X167620000Y-99080000D03*
%TO.P,U1,10,D9/BOOT_10*%
%TO.N,unconnected-(U1-D9{slash}BOOT-Pad10)*%
X167620000Y-96540000D03*
%TO.P,U1,11,D10_11*%
%TO.N,unconnected-(U1-D10-Pad11)*%
X167620000Y-94000000D03*
%TO.P,U1,12,3V3_OUT_12*%
%TO.N,+3.3V*%
X167620000Y-91460000D03*
%TO.P,U1,13,GND_13*%
%TO.N,GND*%
X167620000Y-88920000D03*
%TO.P,U1,14,VBUS_14*%
%TO.N,+5V*%
X167620000Y-86380000D03*
%TD*%
D16*
%TO.P,U2,1,VDD_1*%
%TO.N,unconnected-(U2-VDD-Pad1)*%
X97000000Y-87000000D03*
D17*
%TO.P,U2,2,DATA_2*%
%TO.N,/DHT11 DATA*%
X99540000Y-87000000D03*
%TO.P,U2,3,NC_3*%
%TO.N,unconnected-(U2-NC-Pad3)*%
X102080000Y-87000000D03*
%TO.P,U2,4,GND_4*%
%TO.N,GND*%
X104620000Y-87000000D03*
%TD*%
D11*
%TO.P,SW2,1,1_1*%
%TO.N,/GPIO3*%
X128000000Y-121000000D03*
%TO.P,SW2,2,2_2*%
%TO.N,GND*%
X121650000Y-123540000D03*
%TD*%
%TO.N,+3.3V*%
D18*
X167620000Y-91460000D02*
X144000000Y-115080000D01*
X128810000Y-82000000D02*
X120216000Y-90594000D01*
X127937000Y-115240000D02*
X126446000Y-113749000D01*
X144000000Y-115080000D02*
X144000000Y-115240000D01*
X120889654Y-114899000D02*
X125296000Y-114899000D01*
X144000000Y-115240000D02*
X127937000Y-115240000D01*
X120216000Y-90594000D02*
X120216000Y-114225346D01*
X125296000Y-114899000D02*
X126446000Y-113749000D01*
X120216000Y-114225346D02*
X120889654Y-114899000D01*
%TO.N,/SDA*%
X144000000Y-107620000D02*
X152380000Y-99240000D01*
X152380000Y-99240000D02*
X152380000Y-99080000D01*
X144000000Y-107620000D02*
X127495000Y-107620000D01*
X127495000Y-107620000D02*
X121366000Y-113749000D01*
%TD*%
M02*
