%TF.GenerationSoftware,KiCad,Pcbnew,10.0.6*%
%TF.CreationDate,2026-10-11T04:40:13+05:00*%
%TF.ProjectId,ki,6b692e6b-6963-4616-945f-706362585858,rev?*%
%TF.SameCoordinates,Original*%
%TF.FileFunction,Copper,L1,Top*%
%TF.FilePolarity,Positive*%
%FSLAX46Y46*%
G04 Gerber Fmt 4.6, Leading zero omitted, Abs format (unit mm)*
G04 Created by KiCad (PCBNEW 10.0.6) date 2026-10-11 04:40:13*
%MOMM*%
%LPD*%
G01*
G04 APERTURE LIST*
G04 Aperture macros list*
%AMRoundRect*
0 Rectangle with rounded corners*
0 $1 Rounding radius*
0 $2 $3 $4 $5 $6 $7 $8 $9 X,Y pos of 4 corners*
0 Add a 4 corners polygon primitive as box body*
4,1,4,$2,$3,$4,$5,$6,$7,$8,$9,$2,$3,0*
0 Add four circle primitives for the rounded corners*
1,1,$1+$1,$2,$3*
1,1,$1+$1,$4,$5*
1,1,$1+$1,$6,$7*
1,1,$1+$1,$8,$9*
0 Add four rect primitives between the rounded corners*
20,1,$1+$1,$2,$3,$4,$5,0*
20,1,$1+$1,$4,$5,$6,$7,0*
20,1,$1+$1,$6,$7,$8,$9,0*
20,1,$1+$1,$8,$9,$2,$3,0*%
G04 Aperture macros list end*
%TA.AperFunction,ComponentPad*%
%ADD10C,1.400000*%
%TD*%
%TA.AperFunction,ComponentPad*%
%ADD11C,2.200000*%
%TD*%
%TA.AperFunction,ComponentPad*%
%ADD12R,1.700000X1.700000*%
%TD*%
%TA.AperFunction,ComponentPad*%
%ADD13O,1.700000X1.700000*%
%TD*%
%TA.AperFunction,ComponentPad*%
%ADD14C,1.700000*%
%TD*%
%TA.AperFunction,SMDPad,CuDef*%
%ADD15RoundRect,0.152400X1.063600X0.609600X-1.063600X0.609600X-1.063600X-0.609600X1.063600X-0.609600X0*%
%TD*%
%TA.AperFunction,ComponentPad*%
%ADD16C,1.524000*%
%TD*%
%TA.AperFunction,SMDPad,CuDef*%
%ADD17RoundRect,0.152400X-1.063600X-0.609600X1.063600X-0.609600X1.063600X0.609600X-1.063600X0.609600X0*%
%TD*%
%TA.AperFunction,ComponentPad*%
%ADD18R,1.500000X1.500000*%
%TD*%
%TA.AperFunction,ComponentPad*%
%ADD19C,1.500000*%
%TD*%
%TA.AperFunction,Conductor*%
%ADD20C,0.200000*%
%TD*%
G04 APERTURE END LIST*
D10*
%TO.P,R1,1*%
%TO.N,+3.3V*%
X128810000Y-82000000D03*
%TO.P,R1,2*%
%TO.N,/DHT11 DATA*%
X121190000Y-82000000D03*
%TD*%
D11*
%TO.P,SW1,1,1_1*%
%TO.N,/GPIO2*%
X98000000Y-96000000D03*
%TO.P,SW1,2,2_2*%
%TO.N,GND*%
X91650000Y-98540000D03*
%TD*%
D12*
%TO.P,J2,1,Pin_1_1*%
%TO.N,GND*%
X128986000Y-113749000D03*
D13*
%TO.P,J2,2,Pin_2_2*%
%TO.N,+3.3V*%
X126446000Y-113749000D03*
%TO.P,J2,3,Pin_3_3*%
%TO.N,/SCL*%
X123906000Y-113749000D03*
%TO.P,J2,4,Pin_4_4*%
%TO.N,/SDA*%
X121366000Y-113749000D03*
%TD*%
D12*
%TO.P,J1,1,Pin_1_1*%
%TO.N,+3.3V*%
X144000000Y-115240000D03*
D14*
%TO.P,J1,2,Pin_2_2*%
%TO.N,GND*%
X144000000Y-112700000D03*
%TO.P,J1,3,Pin_3_3*%
%TO.N,/SCL*%
X144000000Y-110160000D03*
%TO.P,J1,4,Pin_4_4*%
%TO.N,/SDA*%
X144000000Y-107620000D03*
%TO.P,J1,5,Pin_5_5*%
%TO.N,unconnected-(J1-Pin_5-Pad5)*%
X144000000Y-105080000D03*
%TO.P,J1,6,Pin_6_6*%
%TO.N,unconnected-(J1-Pin_6-Pad6)*%
X144000000Y-102540000D03*
%TO.P,J1,7,Pin_7_7*%
%TO.N,unconnected-(J1-Pin_7-Pad7)*%
X144000000Y-100000000D03*
%TO.P,J1,8,Pin_8_8*%
%TO.N,unconnected-(J1-Pin_8-Pad8)*%
X144000000Y-97460000D03*
%TD*%
D15*
%TO.P,U1,1,D0_1*%
%TO.N,unconnected-(U1-D0-Pad1)*%
X151545000Y-86380000D03*
D16*
%TO.N,unconnected-(U1-D0-Pad1)_1*%
X152380000Y-86380000D03*
D15*
%TO.P,U1,2,D1_2*%
%TO.N,/DHT11 DATA*%
X151545000Y-88920000D03*
D16*
X152380000Y-88920000D03*
D15*
%TO.P,U1,3,D2_3*%
%TO.N,/GPIO2*%
X151545000Y-91460000D03*
D16*
X152380000Y-91460000D03*
D15*
%TO.P,U1,4,D3_4*%
%TO.N,/GPIO3*%
X151545000Y-94000000D03*
D16*
X152380000Y-94000000D03*
D15*
%TO.P,U1,5,D4_5*%
%TO.N,/SCL*%
X151545000Y-96540000D03*
D16*
X152380000Y-96540000D03*
D15*
%TO.P,U1,6,D5_6*%
%TO.N,/SDA*%
X151545000Y-99080000D03*
D16*
X152380000Y-99080000D03*
D15*
%TO.P,U1,7,D6_7*%
%TO.N,unconnected-(U1-D6-Pad7)_1*%
X151545000Y-101620000D03*
D16*
%TO.N,unconnected-(U1-D6-Pad7)*%
X152380000Y-101620000D03*
%TO.P,U1,8,D7_8*%
%TO.N,unconnected-(U1-D7-Pad8)_1*%
X167620000Y-101620000D03*
D17*
%TO.N,unconnected-(U1-D7-Pad8)*%
X168455000Y-101620000D03*
D16*
%TO.P,U1,9,D8_9*%
%TO.N,unconnected-(U1-D8-Pad9)_1*%
X167620000Y-99080000D03*
D17*
%TO.N,unconnected-(U1-D8-Pad9)*%
X168455000Y-99080000D03*
D16*
%TO.P,U1,10,D9/BOOT_10*%
%TO.N,unconnected-(U1-D9{slash}BOOT-Pad10)*%
X167620000Y-96540000D03*
D17*
%TO.N,unconnected-(U1-D9{slash}BOOT-Pad10)_1*%
X168455000Y-96540000D03*
D16*
%TO.P,U1,11,D10_11*%
%TO.N,unconnected-(U1-D10-Pad11)*%
X167620000Y-94000000D03*
D17*
%TO.N,unconnected-(U1-D10-Pad11)_1*%
X168455000Y-94000000D03*
D16*
%TO.P,U1,12,3V3_OUT_12*%
%TO.N,+3.3V*%
X167620000Y-91460000D03*
D17*
X168455000Y-91460000D03*
D16*
%TO.P,U1,13,GND_13*%
%TO.N,GND*%
X167620000Y-88920000D03*
D17*
X168455000Y-88920000D03*
D16*
%TO.P,U1,14,VBUS_14*%
%TO.N,+5V*%
X167620000Y-86380000D03*
D17*
X168455000Y-86380000D03*
%TD*%
D18*
%TO.P,U2,1,VDD_1*%
%TO.N,unconnected-(U2-VDD-Pad1)*%
X97000000Y-87000000D03*
D19*
%TO.P,U2,2,DATA_2*%
%TO.N,/DHT11 DATA*%
X99540000Y-87000000D03*
%TO.P,U2,3,NC_3*%
%TO.N,unconnected-(U2-NC-Pad3)*%
X102080000Y-87000000D03*
%TO.P,U2,4,GND_4*%
%TO.N,GND*%
X104620000Y-87000000D03*
%TD*%
D11*
%TO.P,SW2,1,1_1*%
%TO.N,/GPIO3*%
X128000000Y-121000000D03*
%TO.P,SW2,2,2_2*%
%TO.N,GND*%
X121650000Y-123540000D03*
%TD*%
%TO.N,/DHT11 DATA*%
D20*
X147382370Y-85000000D02*
X151302370Y-88920000D01*
X124190000Y-85000000D02*
X147382370Y-85000000D01*
X99540000Y-87000000D02*
X101940000Y-84600000D01*
X119248528Y-84600000D02*
X121190000Y-82658528D01*
X121190000Y-82658528D02*
X121190000Y-82000000D01*
X121190000Y-82000000D02*
X124190000Y-85000000D01*
X151302370Y-88920000D02*
X152380000Y-88920000D01*
X101940000Y-84600000D02*
X119248528Y-84600000D01*
%TO.N,/GPIO2*%
X93864925Y-97140000D02*
X103570000Y-87434925D01*
X104185075Y-85950000D02*
X145792370Y-85950000D01*
X103570000Y-87434925D02*
X103570000Y-86565075D01*
X103570000Y-86565075D02*
X104185075Y-85950000D01*
X151302370Y-91460000D02*
X152380000Y-91460000D01*
X91070101Y-97140000D02*
X93864925Y-97140000D01*
X145792370Y-85950000D02*
X151302370Y-91460000D01*
X90250000Y-99119899D02*
X90250000Y-97960101D01*
X90250000Y-97960101D02*
X91070101Y-97140000D01*
X98000000Y-96000000D02*
X96444366Y-96000000D01*
X91070101Y-99940000D02*
X90250000Y-99119899D01*
X92504366Y-99940000D02*
X91070101Y-99940000D01*
X96444366Y-96000000D02*
X92504366Y-99940000D01*
%TO.N,GND*%
X122756000Y-114225346D02*
X123429654Y-114899000D01*
X126600000Y-116135000D02*
X128986000Y-113749000D01*
X122756000Y-105136000D02*
X122756000Y-114225346D01*
X126600000Y-121579899D02*
X126600000Y-116135000D01*
X168455000Y-88920000D02*
X144675000Y-112700000D01*
X93080000Y-98540000D02*
X104620000Y-87000000D01*
X123429654Y-114899000D02*
X127836000Y-114899000D01*
X144675000Y-112700000D02*
X144000000Y-112700000D01*
X144000000Y-112700000D02*
X134300000Y-122400000D01*
X124639899Y-123540000D02*
X126600000Y-121579899D01*
X91650000Y-98540000D02*
X93080000Y-98540000D01*
X121650000Y-123540000D02*
X124639899Y-123540000D01*
X134300000Y-122400000D02*
X127420101Y-122400000D01*
X127420101Y-122400000D02*
X126600000Y-121579899D01*
X104620000Y-87000000D02*
X122756000Y-105136000D01*
X127836000Y-114899000D02*
X128986000Y-113749000D01*
%TO.N,/SCL*%
X142850000Y-109010000D02*
X144000000Y-110160000D01*
X144000000Y-110160000D02*
X127495000Y-110160000D01*
X150289786Y-92938000D02*
X144377786Y-98850000D01*
X153442000Y-93560105D02*
X152819895Y-92938000D01*
X127495000Y-110160000D02*
X123906000Y-113749000D01*
X151545000Y-96540000D02*
X153442000Y-94643000D01*
X142850000Y-99523654D02*
X142850000Y-109010000D01*
X153442000Y-94643000D02*
X153442000Y-93560105D01*
X143523654Y-98850000D02*
X142850000Y-99523654D01*
X144377786Y-98850000D02*
X143523654Y-98850000D01*
X152819895Y-92938000D02*
X150289786Y-92938000D01*
%TO.N,/GPIO3*%
X145150000Y-100152370D02*
X145150000Y-110636346D01*
X145150000Y-110636346D02*
X144476346Y-111310000D01*
X133922944Y-121000000D02*
X128000000Y-121000000D01*
X144476346Y-111310000D02*
X143612944Y-111310000D01*
X151302370Y-94000000D02*
X145150000Y-100152370D01*
X152380000Y-94000000D02*
X151302370Y-94000000D01*
X143612944Y-111310000D02*
X133922944Y-121000000D01*
%TD*%
M02*
