M48
; DRILL file KiCad 10.0.6 date 2026-10-11T04:41:31
; FORMAT={-:-/ absolute / inch / decimal}
; #@! TF.CreationDate,2026-10-11T04:41:31+05:00
; #@! TF.GenerationSoftware,Kicad,Pcbnew,10.0.6
; #@! TF.FileFunction,Plated,1,2,PTH
FMAT,2
INCH
; #@! TA.AperFunction,Plated,PTH,ComponentDrill
T1C0.0276
; #@! TA.AperFunction,Plated,PTH,ComponentDrill
T2C0.0315
; #@! TA.AperFunction,Plated,PTH,ComponentDrill
T3C0.0350
; #@! TA.AperFunction,Plated,PTH,ComponentDrill
T4C0.0394
; #@! TA.AperFunction,Plated,PTH,ComponentDrill
T5C0.0591
%
G90
G05
T1
X4.7713Y-3.2283
X5.0713Y-3.2283
T2
X3.8189Y-3.4252
X3.9189Y-3.4252
X4.0189Y-3.4252
X4.1189Y-3.4252
T3
X5.9992Y-3.4008
X5.9992Y-3.5008
X5.9992Y-3.6008
X5.9992Y-3.7008
X5.9992Y-3.8008
X5.9992Y-3.9008
X5.9992Y-4.0008
X6.5992Y-3.4008
X6.5992Y-3.5008
X6.5992Y-3.6008
X6.5992Y-3.7008
X6.5992Y-3.8008
X6.5992Y-3.9008
X6.5992Y-4.0008
T4
X4.7782Y-4.4783
X4.8782Y-4.4783
X4.9782Y-4.4783
X5.0782Y-4.4783
X5.6693Y-3.837
X5.6693Y-3.937
X5.6693Y-4.037
X5.6693Y-4.137
X5.6693Y-4.237
X5.6693Y-4.337
X5.6693Y-4.437
X5.6693Y-4.537
T5
X3.6083Y-3.8795
X3.8583Y-3.7795
X4.7894Y-4.8638
X5.0394Y-4.7638
M30
